<svg width="16" height="16" viewBox="0 0 16 16" fill="none" xmlns="http://www.w3.org/2000/svg">
<path fill-rule="evenodd" clip-rule="evenodd" d="M1.52851 8.47138C1.4646 8.40746 1.41637 8.33379 1.38384 8.25516C1.35124 8.17656 1.33325 8.09037 1.33325 7.99998C1.33325 7.90958 1.35124 7.82339 1.38384 7.74479C1.41637 7.66616 1.4646 7.59249 1.52851 7.52857L5.29975 3.75733C5.5601 3.49699 5.98221 3.49699 6.24256 3.75733C6.50291 4.01768 6.50291 4.43979 6.24256 4.70014L3.60939 7.33331H13.9999C14.3681 7.33331 14.6666 7.63179 14.6666 7.99998C14.6666 8.36817 14.3681 8.66664 13.9999 8.66664H3.60939L6.24256 11.2998C6.50291 11.5602 6.50291 11.9823 6.24256 12.2426C5.98221 12.503 5.5601 12.503 5.29975 12.2426L1.52851 8.47138Z" fill="#6E41E2"/>
</svg>
